<?xml version="1.0" encoding="UTF-8"?>
<!DOCTYPE svg PUBLIC "-//W3C//DTD SVG 1.1//EN" "http://www.w3.org/Graphics/SVG/1.1/DTD/svg11.dtd">
<svg xmlns="http://www.w3.org/2000/svg" version="1.1" width="225px" height="225px" style="shape-rendering:geometricPrecision; text-rendering:geometricPrecision; image-rendering:optimizeQuality; fill-rule:evenodd; clip-rule:evenodd" xmlns:xlink="http://www.w3.org/1999/xlink">
<g><path style="opacity:1" fill="#fdfdfd" d="M -0.5,-0.5 C 33.5,-0.5 67.5,-0.5 101.5,-0.5C 51.4135,7.07461 18.5802,35.0746 3,83.5C 1.95338,89.3298 0.786709,94.9965 -0.5,100.5C -0.5,66.8333 -0.5,33.1667 -0.5,-0.5 Z"/></g>
<g><path style="opacity:1" fill="#273a7a" d="M 101.5,-0.5 C 106.5,-0.5 111.5,-0.5 116.5,-0.5C 169.46,4.754 204.294,32.754 221,83.5C 222.047,89.3298 223.213,94.9965 224.5,100.5C 224.5,105.833 224.5,111.167 224.5,116.5C 223.878,124.194 222.545,131.861 220.5,139.5C 199.833,119.167 179.167,98.8333 158.5,78.5C 149.167,68.5 139.5,58.8333 129.5,49.5C 110.164,49.3334 90.8305,49.5 71.5,50C 69,51.1667 67.1667,53 66,55.5C 65.3333,93.1667 65.3333,130.833 66,168.5C 67.3597,171.023 69.193,173.023 71.5,174.5C 87.2982,190.799 103.298,206.965 119.5,223C 120.793,223.49 122.127,223.657 123.5,223.5C 123.5,223.833 123.5,224.167 123.5,224.5C 116.167,224.5 108.833,224.5 101.5,224.5C 57.5803,218.282 26.4137,194.948 8,154.5C 3.55568,142.731 0.722351,130.731 -0.5,118.5C -0.5,112.5 -0.5,106.5 -0.5,100.5C 0.786709,94.9965 1.95338,89.3298 3,83.5C 18.5802,35.0746 51.4135,7.07461 101.5,-0.5 Z"/></g>
<g><path style="opacity:1" fill="#fcfdfd" d="M 116.5,-0.5 C 152.5,-0.5 188.5,-0.5 224.5,-0.5C 224.5,33.1667 224.5,66.8333 224.5,100.5C 223.213,94.9965 222.047,89.3298 221,83.5C 204.294,32.754 169.46,4.754 116.5,-0.5 Z"/></g>
<g><path style="opacity:1" fill="#7147bc" d="M 129.5,49.5 C 124.167,74.1667 133.833,83.8333 158.5,78.5C 158.985,109.254 158.485,139.921 157,170.5C 155.786,172.049 154.286,173.215 152.5,174C 125.502,174.5 98.5021,174.667 71.5,174.5C 69.193,173.023 67.3597,171.023 66,168.5C 65.3333,130.833 65.3333,93.1667 66,55.5C 67.1667,53 69,51.1667 71.5,50C 90.8305,49.5 110.164,49.3334 129.5,49.5 Z"/></g>
<g><path style="opacity:1" fill="#b49edb" d="M 129.5,49.5 C 139.5,58.8333 149.167,68.5 158.5,78.5C 133.833,83.8333 124.167,74.1667 129.5,49.5 Z"/></g>
<g><path style="opacity:1" fill="#111048" d="M 158.5,78.5 C 179.167,98.8333 199.833,119.167 220.5,139.5C 210.498,176.342 187.831,202.175 152.5,217C 143.08,220.272 133.414,222.438 123.5,223.5C 122.127,223.657 120.793,223.49 119.5,223C 103.298,206.965 87.2982,190.799 71.5,174.5C 98.5021,174.667 125.502,174.5 152.5,174C 154.286,173.215 155.786,172.049 157,170.5C 158.485,139.921 158.985,109.254 158.5,78.5 Z"/></g>
<g><path style="opacity:1" fill="#eae5f4" d="M 86.5,108.5 C 90.1378,107.737 91.6378,109.07 91,112.5C 86.4155,114.413 84.9155,113.079 86.5,108.5 Z"/></g>
<g><path style="opacity:1" fill="#fbfafd" d="M 102.5,108.5 C 114.833,108.5 127.167,108.5 139.5,108.5C 139.5,109.833 139.5,111.167 139.5,112.5C 127.167,112.5 114.833,112.5 102.5,112.5C 102.5,111.167 102.5,109.833 102.5,108.5 Z"/></g>
<g><path style="opacity:1" fill="#d8cdeb" d="M 102.5,108.5 C 102.5,109.833 102.5,111.167 102.5,112.5C 114.833,112.5 127.167,112.5 139.5,112.5C 127.011,113.495 114.344,113.829 101.5,113.5C 101.216,111.585 101.549,109.919 102.5,108.5 Z"/></g>
<g><path style="opacity:1" fill="#ebe6f5" d="M 86.5,121.5 C 90.1378,120.737 91.6378,122.07 91,125.5C 86.4155,127.413 84.9155,126.079 86.5,121.5 Z"/></g>
<g><path style="opacity:1" fill="#fbfafd" d="M 102.5,121.5 C 114.833,121.5 127.167,121.5 139.5,121.5C 139.5,122.833 139.5,124.167 139.5,125.5C 127.167,125.5 114.833,125.5 102.5,125.5C 102.5,124.167 102.5,122.833 102.5,121.5 Z"/></g>
<g><path style="opacity:1" fill="#d3c8e9" d="M 102.5,121.5 C 102.5,122.833 102.5,124.167 102.5,125.5C 114.833,125.5 127.167,125.5 139.5,125.5C 127.011,126.495 114.344,126.829 101.5,126.5C 101.216,124.585 101.549,122.919 102.5,121.5 Z"/></g>
<g><path style="opacity:1" fill="#fdfdfd" d="M -0.5,118.5 C 0.722351,130.731 3.55568,142.731 8,154.5C 26.4137,194.948 57.5803,218.282 101.5,224.5C 67.5,224.5 33.5,224.5 -0.5,224.5C -0.5,189.167 -0.5,153.833 -0.5,118.5 Z"/></g>
<g><path style="opacity:1" fill="#fcfcfd" d="M 224.5,116.5 C 224.5,152.5 224.5,188.5 224.5,224.5C 190.833,224.5 157.167,224.5 123.5,224.5C 123.5,224.167 123.5,223.833 123.5,223.5C 133.414,222.438 143.08,220.272 152.5,217C 187.831,202.175 210.498,176.342 220.5,139.5C 222.545,131.861 223.878,124.194 224.5,116.5 Z"/></g>
<g><path style="opacity:1" fill="#eae4f4" d="M 86.5,134.5 C 90.1378,133.737 91.6378,135.07 91,138.5C 86.4155,140.413 84.9155,139.079 86.5,134.5 Z"/></g>
<g><path style="opacity:1" fill="#fcfbfd" d="M 102.5,134.5 C 114.833,134.5 127.167,134.5 139.5,134.5C 139.5,135.833 139.5,137.167 139.5,138.5C 127.167,138.5 114.833,138.5 102.5,138.5C 102.5,137.167 102.5,135.833 102.5,134.5 Z"/></g>
<g><path style="opacity:1" fill="#cfc4e7" d="M 102.5,134.5 C 102.5,135.833 102.5,137.167 102.5,138.5C 114.833,138.5 127.167,138.5 139.5,138.5C 127.011,139.495 114.344,139.829 101.5,139.5C 101.216,137.585 101.549,135.919 102.5,134.5 Z"/></g>
</svg>
